<?xml version="1.0" standalone="no"?>
<!DOCTYPE svg PUBLIC "-//W3C//DTD SVG 20010904//EN"
 "http://www.w3.org/TR/2001/REC-SVG-20010904/DTD/svg10.dtd">
<svg version="1.0" xmlns="http://www.w3.org/2000/svg"
 width="64.000000pt" height="64.000000pt" viewBox="0 0 64.000000 64.000000"
 preserveAspectRatio="xMidYMid meet">

<g transform="translate(0.000000,64.000000) scale(0.100000,-0.100000)"
fill="#000000" stroke="none">
<path d="M25 615 l-25 -24 0 -271 0 -271 25 -24 24 -25 271 0 271 0 24 25 25
24 0 271 0 271 -25 24 -24 25 -271 0 -271 0 -24 -25z m289 -262 c-15 -27 -36
-63 -46 -80 l-20 -33 -84 0 c-46 0 -84 3 -84 6 0 4 18 40 41 80 l40 74 90 0
90 0 -27 -47z m66 27 c0 -14 7 -20 23 -20 33 0 47 -18 47 -60 0 -46 -15 -60
-62 -60 l-38 0 0 80 c0 64 3 80 15 80 8 0 15 -9 15 -20z m180 -40 c9 -16 8
-20 -5 -20 -8 0 -15 5 -15 10 0 6 -9 10 -20 10 -21 0 -37 -38 -26 -65 7 -20
42 -19 50 1 3 8 10 12 16 9 19 -12 -9 -45 -38 -45 -38 0 -52 17 -52 60 0 20 5
41 12 48 19 19 66 15 78 -8z"/>
<path d="M380 325 c-17 -21 -4 -65 20 -65 21 0 34 31 25 60 -8 24 -28 26 -45
5z"/>
</g>
</svg>
